<svg xmlns="http://www.w3.org/2000/svg" viewBox="0 0 1030 1426" width="1030" height="1426"><defs><style type="text/css">@import url('https://fonts.googleapis.com/css?family=Roboto+Mono:400|Roboto:400,&amp;subset=cyrillic,cyrillic-ext,greek,greek-ext,latin-ext')</style></defs><rect x="0" y="0" width="1029.5499877929688" height="1426" fill="#ffffff"/><text x="514.7749938964844" y="109" text-anchor="middle" font-size="64px" font-family="Roboto,sans-serif" fill="#52565f">Diagrama de Navegação - /admin</text><text x="984.5499877929688" y="1367" text-anchor="end" font-size="14px" font-family="Roboto,sans-serif" color="#52565f">24 April 2022</text><g transform="translate(119.77499389648438,213)"><g><g><g transform="translate(10, 586)"><rect x="0" y="0" rx="2" ry="2" width="180" height="228" fill="#ffffff"/><g><g><g transform="translate( 0, 0 )"><svg xmlns="http://www.w3.org/2000/svg" xmlns:xlink="http://www.w3.org/1999/xlink" width="180" height="185" viewBox="0 0 180 185">
  <defs>
    <circle id="es50zgx6kk-gui-a" cx="7.5" cy="7.5" r="7.5"/>
    <path id="es50zgx6kk-gui-c" d="M0,1.99508929 C0,0.893231902 0.897026226,0 2.00494659,0 L21.9950534,0 C23.1023548,0 24,0.892622799 24,1.99508929 L24,16.0049107 C24,17.1067681 23.1029738,18 21.9950534,18 L2.00494659,18 C0.897645164,18 0,17.1073772 0,16.0049107 L0,1.99508929 Z"/>
  </defs>
  <g fill="none" fill-rule="evenodd">
    <path fill="#58A8F7" d="M0,2.99971296 C0,1.34301724 1.34537458,0 2.99263929,0 L177.007361,0 C178.66015,0 180,1.34382565 180,2.99971296 L180,185 L0,185 L0,2.99971296 Z" opacity=".097"/>
    <path fill="#58A8F7" d="M0,3.00947762 C0,1.34738902 1.34537458,0 2.99263929,0 L177.007361,0 C178.66015,0 180,1.33663106 180,3.00947762 L180,16 L0,16 L0,3.00947762 Z" opacity=".197"/>
    <path fill="#0D87FF" d="M2.5,5 C1.11928813,5 0,3.88071187 0,2.5 C0,1.11928813 1.11928813,0 2.5,0 C3.88071187,0 5,1.11928813 5,2.5 C5,3.88071187 3.88071187,5 2.5,5 Z M10.5,5 C9.11928813,5 8,3.88071187 8,2.5 C8,1.11928813 9.11928813,0 10.5,0 C11.8807119,0 13,1.11928813 13,2.5 C13,3.88071187 11.8807119,5 10.5,5 Z M18.5,5 C17.1192881,5 16,3.88071187 16,2.5 C16,1.11928813 17.1192881,0 18.5,0 C19.8807119,0 21,1.11928813 21,2.5 C21,3.88071187 19.8807119,5 18.5,5 Z" opacity=".499" transform="translate(5 6)"/>
    <path fill="#0D87FF" d="M0,1.99201702 C0,0.891856397 0.894337654,0 1.99821383,0 L29.0017862,0 C30.1053692,0 31,0.900176167 31,1.99201702 L31,9.00798298 C31,10.1081436 30.1056623,11 29.0017862,11 L1.99821383,11 C0.894630804,11 0,10.0998238 0,9.00798298 L0,1.99201702 Z" opacity=".499" transform="translate(10 26)"/>
    <g transform="translate(51 26)">
      <path fill="#0D87FF" d="M0,1.99201702 C0,0.891856397 0.894337654,0 1.99821383,0 L29.0017862,0 C30.1053692,0 31,0.900176167 31,1.99201702 L31,9.00798298 C31,10.1081436 30.1056623,11 29.0017862,11 L1.99821383,11 C0.894630804,11 0,10.0998238 0,9.00798298 L0,1.99201702 Z"/>
      <path fill="#FFF" d="M1,1.99754465 C1,1.44661595 1.45552075,1 1.99824564,1 L29.0017544,1 C29.5530702,1 30,1.4463114 30,1.99754465 L30,9.00245535 C30,9.55338405 29.5444793,10 29.0017544,10 L1.99824564,10 C1.4469298,10 1,9.5536886 1,9.00245535 L1,1.99754465 Z"/>
    </g>
    <path fill="#0D87FF" d="M0,1.99810135 C0,0.894580447 0.901627257,0 2.00086422,0 L20.9991358,0 C22.1041826,0 23,0.886706352 23,1.99810135 L23,6.00189865 C23,7.10541955 22.0983727,8 20.9991358,8 L2.00086422,8 C0.895817426,8 0,7.11329365 0,6.00189865 L0,1.99810135 Z" opacity=".499" transform="translate(92 29)"/>
    <g transform="translate(125 29)">
      <path fill="#0D87FF" d="M0,1.99810135 C0,0.894580447 0.901627257,0 2.00086422,0 L20.9991358,0 C22.1041826,0 23,0.886706352 23,1.99810135 L23,6.00189865 C23,7.10541955 22.0983727,8 20.9991358,8 L2.00086422,8 C0.895817426,8 0,7.11329365 0,6.00189865 L0,1.99810135 Z"/>
      <path fill="#FFF" d="M1,1.99077797 C1,1.44358641 1.43861485,1 1.99874609,1 L21.0012539,1 C21.5528461,1 22,1.45097518 22,1.99077797 L22,6.00922203 C22,6.55641359 21.5613852,7 21.0012539,7 L1.99874609,7 C1.44715386,7 1,6.54902482 1,6.00922203 L1,1.99077797 Z"/>
    </g>
    <g transform="translate(10 57)">
      <rect width="57" height="11" fill="#58A8F7" opacity=".499" rx="2"/>
      <rect width="55" height="9" x="1" y="1" fill="#FFF" rx="1"/>
    </g>
    <g transform="translate(77 51)">
      <g transform="translate(0 6)">
        <rect width="57" height="11" fill="#58A8F7" opacity=".499" rx="2"/>
        <rect width="55" height="9" x="1" y="1" fill="#FFF" rx="1"/>
      </g>
      <polygon fill="#58A8F7" points="0 0 20 0 20 3 0 3" opacity=".197"/>
    </g>
    <g transform="translate(10 84)">
      <rect width="57" height="11" fill="#58A8F7" opacity=".499" rx="2"/>
      <rect width="55" height="9" x="1" y="1" fill="#FFF" rx="1"/>
      <polygon fill="#58A8F7" points="0 0 32 0 32 3 0 3" opacity=".197" transform="translate(4 4)"/>
    </g>
    <g transform="translate(10 111)">
      <rect width="57" height="11" fill="#58A8F7" opacity=".499" rx="2"/>
      <rect width="55" height="9" x="1" y="1" fill="#FFF" rx="1"/>
      <polygon fill="#58A8F7" points="0 0 32 0 32 3 0 3" opacity=".197" transform="translate(4 4)"/>
      <polygon fill="#0D87FF" points="2.5 3 0 0 5 0" transform="translate(47 4)"/>
    </g>
    <g transform="translate(77 105)">
      <g transform="translate(0 6)">
        <rect width="57" height="11" fill="#58A8F7" opacity=".499" rx="2"/>
        <rect width="55" height="9" x="1" y="1" fill="#FFF" rx="1"/>
        <polygon fill="#58A8F7" points="0 0 32 0 32 3 0 3" opacity=".197" transform="translate(4 4)"/>
        <polygon fill="#0D87FF" points="2.5 3 0 0 5 0" transform="translate(47 4)"/>
      </g>
      <polygon fill="#58A8F7" points="0 0 20 0 20 3 0 3" opacity=".197"/>
    </g>
    <g transform="translate(77 78)">
      <g transform="translate(0 6)">
        <rect width="57" height="11" fill="#58A8F7" opacity=".499" rx="2"/>
        <rect width="55" height="9" x="1" y="1" fill="#FFF" rx="1"/>
        <polygon fill="#58A8F7" points="0 0 32 0 32 3 0 3" opacity=".197" transform="translate(4 4)"/>
        <polygon fill="#0D87FF" points="2.5 3 0 0 5 0" transform="translate(47 4)"/>
      </g>
      <polygon fill="#58A8F7" points="0 0 20 0 20 3 0 3" opacity=".197"/>
    </g>
    <g transform="translate(10 142)">
      <circle cx="7.5" cy="7.5" r="7.5" fill="#0D87FF" opacity=".499"/>
      <polygon fill="#FFF" points="7.5 9.75 4.855 11.141 5.36 8.195 3.22 6.109 6.177 5.68 7.5 3 8.823 5.68 11.78 6.109 9.64 8.195 10.145 11.141"/>
    </g>
    <circle cx="5" cy="5" r="5" fill="#58A8F7" opacity=".197" transform="translate(35 145)"/>
    <g transform="translate(54 142)">
      <mask id="es50zgx6kk-gui-b" fill="#fff">
        <use xlink:href="#es50zgx6kk-gui-a"/>
      </mask>
      <use fill="#58A8F7" opacity=".197" xlink:href="#es50zgx6kk-gui-a"/>
      <path fill="#0D87FF" d="M7.5,21 C3.91014913,21 1,18.0898509 1,14.5 C1,10.9101491 3.91014913,8 7.5,8 C11.0898509,8 14,10.9101491 14,14.5 C14,18.0898509 11.0898509,21 7.5,21 Z M7.5,7 C6.11928813,7 5,5.88071187 5,4.5 C5,3.11928813 6.11928813,2 7.5,2 C8.88071187,2 10,3.11928813 10,4.5 C10,5.88071187 8.88071187,7 7.5,7 Z" mask="url(#es50zgx6kk-gui-b)" opacity=".499"/>
    </g>
    <g transform="translate(79 142)">
      <circle cx="7.5" cy="7.5" r="7.5" fill="#FFF"/>
      <polygon fill="#0D87FF" points="5 3 0 6 0 0" transform="translate(5.816 4.286)"/>
    </g>
    <g transform="translate(104 140)">
      <path fill="#58A8F7" d="M0,1.99508929 C0,0.893231902 0.897026226,0 2.00494659,0 L21.9950534,0 C23.1023548,0 24,0.892622799 24,1.99508929 L24,16.0049107 C24,17.1067681 23.1029738,18 21.9950534,18 L2.00494659,18 C0.897645164,18 0,17.1073772 0,16.0049107 L0,1.99508929 Z" opacity=".197"/>
      <mask id="es50zgx6kk-gui-d" fill="#fff">
        <use xlink:href="#es50zgx6kk-gui-c"/>
      </mask>
      <path fill="#58A8F7" d="M20.5714286,9.81818182 C25.2050919,9.81818182 28.0565771,13.3115424 32.5714286,18 C28.8882603,18 13.1203921,18 8.57142857,18 C12.4922207,14.1389173 15.9377652,9.81818182 20.5714286,9.81818182 Z" mask="url(#es50zgx6kk-gui-d)" opacity=".197"/>
      <path fill="#0D87FF" d="M3.42857143,8.18181818 C8.31958315,8.18181818 11.9126984,12.8633949 16.2857143,18 C10.5479809,18 -3.34693878,18 -8.57142857,18 C-4.34737299,12.8633949 -1.4624403,8.18181818 3.42857143,8.18181818 Z" mask="url(#es50zgx6kk-gui-d)" opacity=".198"/>
      <circle cx="12.857" cy="5.727" r="3" fill="#58A8F7" mask="url(#es50zgx6kk-gui-d)" opacity=".499"/>
    </g>
  </g>
</svg></g></g></g><rect x="-1" y="-1" rx="3" ry="3" width="182" height="230" fill="none" stroke="#A2CEF9" stroke-width="2"/><g transform="translate(0,206)"><g><text x="90" y="4" text-anchor="middle" font-family="Roboto,sans-serif" font-size="14px" fill="#52565f">Gerenciar Administradores</text></g></g></g><g transform="translate(210, 586)"><rect x="0" y="0" rx="2" ry="2" width="180" height="228" fill="#ffffff"/><g><g><g transform="translate( 0, 0 )"><svg xmlns="http://www.w3.org/2000/svg" xmlns:xlink="http://www.w3.org/1999/xlink" width="180" height="185" viewBox="0 0 180 185">
  <defs>
    <circle id="rgzv4sq1w27-gui-a" cx="7.5" cy="7.5" r="7.5"/>
    <path id="rgzv4sq1w27-gui-c" d="M0,1.99508929 C0,0.893231902 0.897026226,0 2.00494659,0 L21.9950534,0 C23.1023548,0 24,0.892622799 24,1.99508929 L24,16.0049107 C24,17.1067681 23.1029738,18 21.9950534,18 L2.00494659,18 C0.897645164,18 0,17.1073772 0,16.0049107 L0,1.99508929 Z"/>
  </defs>
  <g fill="none" fill-rule="evenodd">
    <path fill="#58A8F7" d="M0,2.99971296 C0,1.34301724 1.34537458,0 2.99263929,0 L177.007361,0 C178.66015,0 180,1.34382565 180,2.99971296 L180,185 L0,185 L0,2.99971296 Z" opacity=".097"/>
    <path fill="#58A8F7" d="M0,3.00947762 C0,1.34738902 1.34537458,0 2.99263929,0 L177.007361,0 C178.66015,0 180,1.33663106 180,3.00947762 L180,16 L0,16 L0,3.00947762 Z" opacity=".197"/>
    <path fill="#0D87FF" d="M2.5,5 C1.11928813,5 0,3.88071187 0,2.5 C0,1.11928813 1.11928813,0 2.5,0 C3.88071187,0 5,1.11928813 5,2.5 C5,3.88071187 3.88071187,5 2.5,5 Z M10.5,5 C9.11928813,5 8,3.88071187 8,2.5 C8,1.11928813 9.11928813,0 10.5,0 C11.8807119,0 13,1.11928813 13,2.5 C13,3.88071187 11.8807119,5 10.5,5 Z M18.5,5 C17.1192881,5 16,3.88071187 16,2.5 C16,1.11928813 17.1192881,0 18.5,0 C19.8807119,0 21,1.11928813 21,2.5 C21,3.88071187 19.8807119,5 18.5,5 Z" opacity=".499" transform="translate(5 6)"/>
    <path fill="#0D87FF" d="M0,1.99201702 C0,0.891856397 0.894337654,0 1.99821383,0 L29.0017862,0 C30.1053692,0 31,0.900176167 31,1.99201702 L31,9.00798298 C31,10.1081436 30.1056623,11 29.0017862,11 L1.99821383,11 C0.894630804,11 0,10.0998238 0,9.00798298 L0,1.99201702 Z" opacity=".499" transform="translate(10 26)"/>
    <g transform="translate(51 26)">
      <path fill="#0D87FF" d="M0,1.99201702 C0,0.891856397 0.894337654,0 1.99821383,0 L29.0017862,0 C30.1053692,0 31,0.900176167 31,1.99201702 L31,9.00798298 C31,10.1081436 30.1056623,11 29.0017862,11 L1.99821383,11 C0.894630804,11 0,10.0998238 0,9.00798298 L0,1.99201702 Z"/>
      <path fill="#FFF" d="M1,1.99754465 C1,1.44661595 1.45552075,1 1.99824564,1 L29.0017544,1 C29.5530702,1 30,1.4463114 30,1.99754465 L30,9.00245535 C30,9.55338405 29.5444793,10 29.0017544,10 L1.99824564,10 C1.4469298,10 1,9.5536886 1,9.00245535 L1,1.99754465 Z"/>
    </g>
    <path fill="#0D87FF" d="M0,1.99810135 C0,0.894580447 0.901627257,0 2.00086422,0 L20.9991358,0 C22.1041826,0 23,0.886706352 23,1.99810135 L23,6.00189865 C23,7.10541955 22.0983727,8 20.9991358,8 L2.00086422,8 C0.895817426,8 0,7.11329365 0,6.00189865 L0,1.99810135 Z" opacity=".499" transform="translate(92 29)"/>
    <g transform="translate(125 29)">
      <path fill="#0D87FF" d="M0,1.99810135 C0,0.894580447 0.901627257,0 2.00086422,0 L20.9991358,0 C22.1041826,0 23,0.886706352 23,1.99810135 L23,6.00189865 C23,7.10541955 22.0983727,8 20.9991358,8 L2.00086422,8 C0.895817426,8 0,7.11329365 0,6.00189865 L0,1.99810135 Z"/>
      <path fill="#FFF" d="M1,1.99077797 C1,1.44358641 1.43861485,1 1.99874609,1 L21.0012539,1 C21.5528461,1 22,1.45097518 22,1.99077797 L22,6.00922203 C22,6.55641359 21.5613852,7 21.0012539,7 L1.99874609,7 C1.44715386,7 1,6.54902482 1,6.00922203 L1,1.99077797 Z"/>
    </g>
    <g transform="translate(10 57)">
      <rect width="57" height="11" fill="#58A8F7" opacity=".499" rx="2"/>
      <rect width="55" height="9" x="1" y="1" fill="#FFF" rx="1"/>
    </g>
    <g transform="translate(77 51)">
      <g transform="translate(0 6)">
        <rect width="57" height="11" fill="#58A8F7" opacity=".499" rx="2"/>
        <rect width="55" height="9" x="1" y="1" fill="#FFF" rx="1"/>
      </g>
      <polygon fill="#58A8F7" points="0 0 20 0 20 3 0 3" opacity=".197"/>
    </g>
    <g transform="translate(10 84)">
      <rect width="57" height="11" fill="#58A8F7" opacity=".499" rx="2"/>
      <rect width="55" height="9" x="1" y="1" fill="#FFF" rx="1"/>
      <polygon fill="#58A8F7" points="0 0 32 0 32 3 0 3" opacity=".197" transform="translate(4 4)"/>
    </g>
    <g transform="translate(10 111)">
      <rect width="57" height="11" fill="#58A8F7" opacity=".499" rx="2"/>
      <rect width="55" height="9" x="1" y="1" fill="#FFF" rx="1"/>
      <polygon fill="#58A8F7" points="0 0 32 0 32 3 0 3" opacity=".197" transform="translate(4 4)"/>
      <polygon fill="#0D87FF" points="2.5 3 0 0 5 0" transform="translate(47 4)"/>
    </g>
    <g transform="translate(77 105)">
      <g transform="translate(0 6)">
        <rect width="57" height="11" fill="#58A8F7" opacity=".499" rx="2"/>
        <rect width="55" height="9" x="1" y="1" fill="#FFF" rx="1"/>
        <polygon fill="#58A8F7" points="0 0 32 0 32 3 0 3" opacity=".197" transform="translate(4 4)"/>
        <polygon fill="#0D87FF" points="2.5 3 0 0 5 0" transform="translate(47 4)"/>
      </g>
      <polygon fill="#58A8F7" points="0 0 20 0 20 3 0 3" opacity=".197"/>
    </g>
    <g transform="translate(77 78)">
      <g transform="translate(0 6)">
        <rect width="57" height="11" fill="#58A8F7" opacity=".499" rx="2"/>
        <rect width="55" height="9" x="1" y="1" fill="#FFF" rx="1"/>
        <polygon fill="#58A8F7" points="0 0 32 0 32 3 0 3" opacity=".197" transform="translate(4 4)"/>
        <polygon fill="#0D87FF" points="2.5 3 0 0 5 0" transform="translate(47 4)"/>
      </g>
      <polygon fill="#58A8F7" points="0 0 20 0 20 3 0 3" opacity=".197"/>
    </g>
    <g transform="translate(10 142)">
      <circle cx="7.5" cy="7.5" r="7.5" fill="#0D87FF" opacity=".499"/>
      <polygon fill="#FFF" points="7.5 9.75 4.855 11.141 5.36 8.195 3.22 6.109 6.177 5.68 7.5 3 8.823 5.68 11.78 6.109 9.64 8.195 10.145 11.141"/>
    </g>
    <circle cx="5" cy="5" r="5" fill="#58A8F7" opacity=".197" transform="translate(35 145)"/>
    <g transform="translate(54 142)">
      <mask id="rgzv4sq1w27-gui-b" fill="#fff">
        <use xlink:href="#rgzv4sq1w27-gui-a"/>
      </mask>
      <use fill="#58A8F7" opacity=".197" xlink:href="#rgzv4sq1w27-gui-a"/>
      <path fill="#0D87FF" d="M7.5,21 C3.91014913,21 1,18.0898509 1,14.5 C1,10.9101491 3.91014913,8 7.5,8 C11.0898509,8 14,10.9101491 14,14.5 C14,18.0898509 11.0898509,21 7.5,21 Z M7.5,7 C6.11928813,7 5,5.88071187 5,4.5 C5,3.11928813 6.11928813,2 7.5,2 C8.88071187,2 10,3.11928813 10,4.5 C10,5.88071187 8.88071187,7 7.5,7 Z" mask="url(#rgzv4sq1w27-gui-b)" opacity=".499"/>
    </g>
    <g transform="translate(79 142)">
      <circle cx="7.5" cy="7.5" r="7.5" fill="#FFF"/>
      <polygon fill="#0D87FF" points="5 3 0 6 0 0" transform="translate(5.816 4.286)"/>
    </g>
    <g transform="translate(104 140)">
      <path fill="#58A8F7" d="M0,1.99508929 C0,0.893231902 0.897026226,0 2.00494659,0 L21.9950534,0 C23.1023548,0 24,0.892622799 24,1.99508929 L24,16.0049107 C24,17.1067681 23.1029738,18 21.9950534,18 L2.00494659,18 C0.897645164,18 0,17.1073772 0,16.0049107 L0,1.99508929 Z" opacity=".197"/>
      <mask id="rgzv4sq1w27-gui-d" fill="#fff">
        <use xlink:href="#rgzv4sq1w27-gui-c"/>
      </mask>
      <path fill="#58A8F7" d="M20.5714286,9.81818182 C25.2050919,9.81818182 28.0565771,13.3115424 32.5714286,18 C28.8882603,18 13.1203921,18 8.57142857,18 C12.4922207,14.1389173 15.9377652,9.81818182 20.5714286,9.81818182 Z" mask="url(#rgzv4sq1w27-gui-d)" opacity=".197"/>
      <path fill="#0D87FF" d="M3.42857143,8.18181818 C8.31958315,8.18181818 11.9126984,12.8633949 16.2857143,18 C10.5479809,18 -3.34693878,18 -8.57142857,18 C-4.34737299,12.8633949 -1.4624403,8.18181818 3.42857143,8.18181818 Z" mask="url(#rgzv4sq1w27-gui-d)" opacity=".198"/>
      <circle cx="12.857" cy="5.727" r="3" fill="#58A8F7" mask="url(#rgzv4sq1w27-gui-d)" opacity=".499"/>
    </g>
  </g>
</svg></g></g></g><rect x="-1" y="-1" rx="3" ry="3" width="182" height="230" fill="none" stroke="#A2CEF9" stroke-width="2"/><g transform="translate(0,206)"><g><text x="90" y="4" text-anchor="middle" font-family="Roboto,sans-serif" font-size="14px" fill="#52565f">Gerenciar Usuários</text></g></g></g><g transform="translate(410, 866)"><rect x="0" y="0" rx="2" ry="2" width="180" height="228" fill="#ffffff"/><g><g><g transform="translate( 0, 0 )"><svg xmlns="http://www.w3.org/2000/svg" xmlns:xlink="http://www.w3.org/1999/xlink" width="180" height="185" viewBox="0 0 180 185">
  <defs>
    <circle id="58pcoac7omv-gui-a" cx="7.5" cy="7.5" r="7.5"/>
    <path id="58pcoac7omv-gui-c" d="M0,1.99508929 C0,0.893231902 0.897026226,0 2.00494659,0 L21.9950534,0 C23.1023548,0 24,0.892622799 24,1.99508929 L24,16.0049107 C24,17.1067681 23.1029738,18 21.9950534,18 L2.00494659,18 C0.897645164,18 0,17.1073772 0,16.0049107 L0,1.99508929 Z"/>
  </defs>
  <g fill="none" fill-rule="evenodd">
    <path fill="#58A8F7" d="M0,2.99971296 C0,1.34301724 1.34537458,0 2.99263929,0 L177.007361,0 C178.66015,0 180,1.34382565 180,2.99971296 L180,185 L0,185 L0,2.99971296 Z" opacity=".097"/>
    <path fill="#58A8F7" d="M0,3.00947762 C0,1.34738902 1.34537458,0 2.99263929,0 L177.007361,0 C178.66015,0 180,1.33663106 180,3.00947762 L180,16 L0,16 L0,3.00947762 Z" opacity=".197"/>
    <path fill="#0D87FF" d="M2.5,5 C1.11928813,5 0,3.88071187 0,2.5 C0,1.11928813 1.11928813,0 2.5,0 C3.88071187,0 5,1.11928813 5,2.5 C5,3.88071187 3.88071187,5 2.5,5 Z M10.5,5 C9.11928813,5 8,3.88071187 8,2.5 C8,1.11928813 9.11928813,0 10.5,0 C11.8807119,0 13,1.11928813 13,2.5 C13,3.88071187 11.8807119,5 10.5,5 Z M18.5,5 C17.1192881,5 16,3.88071187 16,2.5 C16,1.11928813 17.1192881,0 18.5,0 C19.8807119,0 21,1.11928813 21,2.5 C21,3.88071187 19.8807119,5 18.5,5 Z" opacity=".499" transform="translate(5 6)"/>
    <path fill="#0D87FF" d="M0,1.99201702 C0,0.891856397 0.894337654,0 1.99821383,0 L29.0017862,0 C30.1053692,0 31,0.900176167 31,1.99201702 L31,9.00798298 C31,10.1081436 30.1056623,11 29.0017862,11 L1.99821383,11 C0.894630804,11 0,10.0998238 0,9.00798298 L0,1.99201702 Z" opacity=".499" transform="translate(10 26)"/>
    <g transform="translate(51 26)">
      <path fill="#0D87FF" d="M0,1.99201702 C0,0.891856397 0.894337654,0 1.99821383,0 L29.0017862,0 C30.1053692,0 31,0.900176167 31,1.99201702 L31,9.00798298 C31,10.1081436 30.1056623,11 29.0017862,11 L1.99821383,11 C0.894630804,11 0,10.0998238 0,9.00798298 L0,1.99201702 Z"/>
      <path fill="#FFF" d="M1,1.99754465 C1,1.44661595 1.45552075,1 1.99824564,1 L29.0017544,1 C29.5530702,1 30,1.4463114 30,1.99754465 L30,9.00245535 C30,9.55338405 29.5444793,10 29.0017544,10 L1.99824564,10 C1.4469298,10 1,9.5536886 1,9.00245535 L1,1.99754465 Z"/>
    </g>
    <path fill="#0D87FF" d="M0,1.99810135 C0,0.894580447 0.901627257,0 2.00086422,0 L20.9991358,0 C22.1041826,0 23,0.886706352 23,1.99810135 L23,6.00189865 C23,7.10541955 22.0983727,8 20.9991358,8 L2.00086422,8 C0.895817426,8 0,7.11329365 0,6.00189865 L0,1.99810135 Z" opacity=".499" transform="translate(92 29)"/>
    <g transform="translate(125 29)">
      <path fill="#0D87FF" d="M0,1.99810135 C0,0.894580447 0.901627257,0 2.00086422,0 L20.9991358,0 C22.1041826,0 23,0.886706352 23,1.99810135 L23,6.00189865 C23,7.10541955 22.0983727,8 20.9991358,8 L2.00086422,8 C0.895817426,8 0,7.11329365 0,6.00189865 L0,1.99810135 Z"/>
      <path fill="#FFF" d="M1,1.99077797 C1,1.44358641 1.43861485,1 1.99874609,1 L21.0012539,1 C21.5528461,1 22,1.45097518 22,1.99077797 L22,6.00922203 C22,6.55641359 21.5613852,7 21.0012539,7 L1.99874609,7 C1.44715386,7 1,6.54902482 1,6.00922203 L1,1.99077797 Z"/>
    </g>
    <g transform="translate(10 57)">
      <rect width="57" height="11" fill="#58A8F7" opacity=".499" rx="2"/>
      <rect width="55" height="9" x="1" y="1" fill="#FFF" rx="1"/>
    </g>
    <g transform="translate(77 51)">
      <g transform="translate(0 6)">
        <rect width="57" height="11" fill="#58A8F7" opacity=".499" rx="2"/>
        <rect width="55" height="9" x="1" y="1" fill="#FFF" rx="1"/>
      </g>
      <polygon fill="#58A8F7" points="0 0 20 0 20 3 0 3" opacity=".197"/>
    </g>
    <g transform="translate(10 84)">
      <rect width="57" height="11" fill="#58A8F7" opacity=".499" rx="2"/>
      <rect width="55" height="9" x="1" y="1" fill="#FFF" rx="1"/>
      <polygon fill="#58A8F7" points="0 0 32 0 32 3 0 3" opacity=".197" transform="translate(4 4)"/>
    </g>
    <g transform="translate(10 111)">
      <rect width="57" height="11" fill="#58A8F7" opacity=".499" rx="2"/>
      <rect width="55" height="9" x="1" y="1" fill="#FFF" rx="1"/>
      <polygon fill="#58A8F7" points="0 0 32 0 32 3 0 3" opacity=".197" transform="translate(4 4)"/>
      <polygon fill="#0D87FF" points="2.5 3 0 0 5 0" transform="translate(47 4)"/>
    </g>
    <g transform="translate(77 105)">
      <g transform="translate(0 6)">
        <rect width="57" height="11" fill="#58A8F7" opacity=".499" rx="2"/>
        <rect width="55" height="9" x="1" y="1" fill="#FFF" rx="1"/>
        <polygon fill="#58A8F7" points="0 0 32 0 32 3 0 3" opacity=".197" transform="translate(4 4)"/>
        <polygon fill="#0D87FF" points="2.5 3 0 0 5 0" transform="translate(47 4)"/>
      </g>
      <polygon fill="#58A8F7" points="0 0 20 0 20 3 0 3" opacity=".197"/>
    </g>
    <g transform="translate(77 78)">
      <g transform="translate(0 6)">
        <rect width="57" height="11" fill="#58A8F7" opacity=".499" rx="2"/>
        <rect width="55" height="9" x="1" y="1" fill="#FFF" rx="1"/>
        <polygon fill="#58A8F7" points="0 0 32 0 32 3 0 3" opacity=".197" transform="translate(4 4)"/>
        <polygon fill="#0D87FF" points="2.5 3 0 0 5 0" transform="translate(47 4)"/>
      </g>
      <polygon fill="#58A8F7" points="0 0 20 0 20 3 0 3" opacity=".197"/>
    </g>
    <g transform="translate(10 142)">
      <circle cx="7.5" cy="7.5" r="7.5" fill="#0D87FF" opacity=".499"/>
      <polygon fill="#FFF" points="7.5 9.75 4.855 11.141 5.36 8.195 3.22 6.109 6.177 5.68 7.5 3 8.823 5.68 11.78 6.109 9.64 8.195 10.145 11.141"/>
    </g>
    <circle cx="5" cy="5" r="5" fill="#58A8F7" opacity=".197" transform="translate(35 145)"/>
    <g transform="translate(54 142)">
      <mask id="58pcoac7omv-gui-b" fill="#fff">
        <use xlink:href="#58pcoac7omv-gui-a"/>
      </mask>
      <use fill="#58A8F7" opacity=".197" xlink:href="#58pcoac7omv-gui-a"/>
      <path fill="#0D87FF" d="M7.5,21 C3.91014913,21 1,18.0898509 1,14.5 C1,10.9101491 3.91014913,8 7.5,8 C11.0898509,8 14,10.9101491 14,14.5 C14,18.0898509 11.0898509,21 7.5,21 Z M7.5,7 C6.11928813,7 5,5.88071187 5,4.5 C5,3.11928813 6.11928813,2 7.5,2 C8.88071187,2 10,3.11928813 10,4.5 C10,5.88071187 8.88071187,7 7.5,7 Z" mask="url(#58pcoac7omv-gui-b)" opacity=".499"/>
    </g>
    <g transform="translate(79 142)">
      <circle cx="7.5" cy="7.5" r="7.5" fill="#FFF"/>
      <polygon fill="#0D87FF" points="5 3 0 6 0 0" transform="translate(5.816 4.286)"/>
    </g>
    <g transform="translate(104 140)">
      <path fill="#58A8F7" d="M0,1.99508929 C0,0.893231902 0.897026226,0 2.00494659,0 L21.9950534,0 C23.1023548,0 24,0.892622799 24,1.99508929 L24,16.0049107 C24,17.1067681 23.1029738,18 21.9950534,18 L2.00494659,18 C0.897645164,18 0,17.1073772 0,16.0049107 L0,1.99508929 Z" opacity=".197"/>
      <mask id="58pcoac7omv-gui-d" fill="#fff">
        <use xlink:href="#58pcoac7omv-gui-c"/>
      </mask>
      <path fill="#58A8F7" d="M20.5714286,9.81818182 C25.2050919,9.81818182 28.0565771,13.3115424 32.5714286,18 C28.8882603,18 13.1203921,18 8.57142857,18 C12.4922207,14.1389173 15.9377652,9.81818182 20.5714286,9.81818182 Z" mask="url(#58pcoac7omv-gui-d)" opacity=".197"/>
      <path fill="#0D87FF" d="M3.42857143,8.18181818 C8.31958315,8.18181818 11.9126984,12.8633949 16.2857143,18 C10.5479809,18 -3.34693878,18 -8.57142857,18 C-4.34737299,12.8633949 -1.4624403,8.18181818 3.42857143,8.18181818 Z" mask="url(#58pcoac7omv-gui-d)" opacity=".198"/>
      <circle cx="12.857" cy="5.727" r="3" fill="#58A8F7" mask="url(#58pcoac7omv-gui-d)" opacity=".499"/>
    </g>
  </g>
</svg></g></g></g><rect x="-1" y="-1" rx="3" ry="3" width="182" height="230" fill="none" stroke="#A2CEF9" stroke-width="2"/><g transform="translate(0,206)"><g><text x="90" y="4" text-anchor="middle" font-family="Roboto,sans-serif" font-size="14px" fill="#52565f">Gerenciar Discos</text></g></g></g><g transform="translate(610, 866)"><rect x="0" y="0" rx="2" ry="2" width="180" height="228" fill="#ffffff"/><g><g><g transform="translate( 0, 0 )"><svg xmlns="http://www.w3.org/2000/svg" xmlns:xlink="http://www.w3.org/1999/xlink" width="180" height="185" viewBox="0 0 180 185">
  <defs>
    <circle id="33tc4i4ewcw-gui-a" cx="7.5" cy="7.5" r="7.5"/>
    <path id="33tc4i4ewcw-gui-c" d="M0,1.99508929 C0,0.893231902 0.897026226,0 2.00494659,0 L21.9950534,0 C23.1023548,0 24,0.892622799 24,1.99508929 L24,16.0049107 C24,17.1067681 23.1029738,18 21.9950534,18 L2.00494659,18 C0.897645164,18 0,17.1073772 0,16.0049107 L0,1.99508929 Z"/>
  </defs>
  <g fill="none" fill-rule="evenodd">
    <path fill="#58A8F7" d="M0,2.99971296 C0,1.34301724 1.34537458,0 2.99263929,0 L177.007361,0 C178.66015,0 180,1.34382565 180,2.99971296 L180,185 L0,185 L0,2.99971296 Z" opacity=".097"/>
    <path fill="#58A8F7" d="M0,3.00947762 C0,1.34738902 1.34537458,0 2.99263929,0 L177.007361,0 C178.66015,0 180,1.33663106 180,3.00947762 L180,16 L0,16 L0,3.00947762 Z" opacity=".197"/>
    <path fill="#0D87FF" d="M2.5,5 C1.11928813,5 0,3.88071187 0,2.5 C0,1.11928813 1.11928813,0 2.5,0 C3.88071187,0 5,1.11928813 5,2.5 C5,3.88071187 3.88071187,5 2.5,5 Z M10.5,5 C9.11928813,5 8,3.88071187 8,2.5 C8,1.11928813 9.11928813,0 10.5,0 C11.8807119,0 13,1.11928813 13,2.5 C13,3.88071187 11.8807119,5 10.5,5 Z M18.5,5 C17.1192881,5 16,3.88071187 16,2.5 C16,1.11928813 17.1192881,0 18.5,0 C19.8807119,0 21,1.11928813 21,2.5 C21,3.88071187 19.8807119,5 18.5,5 Z" opacity=".499" transform="translate(5 6)"/>
    <path fill="#0D87FF" d="M0,1.99201702 C0,0.891856397 0.894337654,0 1.99821383,0 L29.0017862,0 C30.1053692,0 31,0.900176167 31,1.99201702 L31,9.00798298 C31,10.1081436 30.1056623,11 29.0017862,11 L1.99821383,11 C0.894630804,11 0,10.0998238 0,9.00798298 L0,1.99201702 Z" opacity=".499" transform="translate(10 26)"/>
    <g transform="translate(51 26)">
      <path fill="#0D87FF" d="M0,1.99201702 C0,0.891856397 0.894337654,0 1.99821383,0 L29.0017862,0 C30.1053692,0 31,0.900176167 31,1.99201702 L31,9.00798298 C31,10.1081436 30.1056623,11 29.0017862,11 L1.99821383,11 C0.894630804,11 0,10.0998238 0,9.00798298 L0,1.99201702 Z"/>
      <path fill="#FFF" d="M1,1.99754465 C1,1.44661595 1.45552075,1 1.99824564,1 L29.0017544,1 C29.5530702,1 30,1.4463114 30,1.99754465 L30,9.00245535 C30,9.55338405 29.5444793,10 29.0017544,10 L1.99824564,10 C1.4469298,10 1,9.5536886 1,9.00245535 L1,1.99754465 Z"/>
    </g>
    <path fill="#0D87FF" d="M0,1.99810135 C0,0.894580447 0.901627257,0 2.00086422,0 L20.9991358,0 C22.1041826,0 23,0.886706352 23,1.99810135 L23,6.00189865 C23,7.10541955 22.0983727,8 20.9991358,8 L2.00086422,8 C0.895817426,8 0,7.11329365 0,6.00189865 L0,1.99810135 Z" opacity=".499" transform="translate(92 29)"/>
    <g transform="translate(125 29)">
      <path fill="#0D87FF" d="M0,1.99810135 C0,0.894580447 0.901627257,0 2.00086422,0 L20.9991358,0 C22.1041826,0 23,0.886706352 23,1.99810135 L23,6.00189865 C23,7.10541955 22.0983727,8 20.9991358,8 L2.00086422,8 C0.895817426,8 0,7.11329365 0,6.00189865 L0,1.99810135 Z"/>
      <path fill="#FFF" d="M1,1.99077797 C1,1.44358641 1.43861485,1 1.99874609,1 L21.0012539,1 C21.5528461,1 22,1.45097518 22,1.99077797 L22,6.00922203 C22,6.55641359 21.5613852,7 21.0012539,7 L1.99874609,7 C1.44715386,7 1,6.54902482 1,6.00922203 L1,1.99077797 Z"/>
    </g>
    <g transform="translate(10 57)">
      <rect width="57" height="11" fill="#58A8F7" opacity=".499" rx="2"/>
      <rect width="55" height="9" x="1" y="1" fill="#FFF" rx="1"/>
    </g>
    <g transform="translate(77 51)">
      <g transform="translate(0 6)">
        <rect width="57" height="11" fill="#58A8F7" opacity=".499" rx="2"/>
        <rect width="55" height="9" x="1" y="1" fill="#FFF" rx="1"/>
      </g>
      <polygon fill="#58A8F7" points="0 0 20 0 20 3 0 3" opacity=".197"/>
    </g>
    <g transform="translate(10 84)">
      <rect width="57" height="11" fill="#58A8F7" opacity=".499" rx="2"/>
      <rect width="55" height="9" x="1" y="1" fill="#FFF" rx="1"/>
      <polygon fill="#58A8F7" points="0 0 32 0 32 3 0 3" opacity=".197" transform="translate(4 4)"/>
    </g>
    <g transform="translate(10 111)">
      <rect width="57" height="11" fill="#58A8F7" opacity=".499" rx="2"/>
      <rect width="55" height="9" x="1" y="1" fill="#FFF" rx="1"/>
      <polygon fill="#58A8F7" points="0 0 32 0 32 3 0 3" opacity=".197" transform="translate(4 4)"/>
      <polygon fill="#0D87FF" points="2.5 3 0 0 5 0" transform="translate(47 4)"/>
    </g>
    <g transform="translate(77 105)">
      <g transform="translate(0 6)">
        <rect width="57" height="11" fill="#58A8F7" opacity=".499" rx="2"/>
        <rect width="55" height="9" x="1" y="1" fill="#FFF" rx="1"/>
        <polygon fill="#58A8F7" points="0 0 32 0 32 3 0 3" opacity=".197" transform="translate(4 4)"/>
        <polygon fill="#0D87FF" points="2.5 3 0 0 5 0" transform="translate(47 4)"/>
      </g>
      <polygon fill="#58A8F7" points="0 0 20 0 20 3 0 3" opacity=".197"/>
    </g>
    <g transform="translate(77 78)">
      <g transform="translate(0 6)">
        <rect width="57" height="11" fill="#58A8F7" opacity=".499" rx="2"/>
        <rect width="55" height="9" x="1" y="1" fill="#FFF" rx="1"/>
        <polygon fill="#58A8F7" points="0 0 32 0 32 3 0 3" opacity=".197" transform="translate(4 4)"/>
        <polygon fill="#0D87FF" points="2.5 3 0 0 5 0" transform="translate(47 4)"/>
      </g>
      <polygon fill="#58A8F7" points="0 0 20 0 20 3 0 3" opacity=".197"/>
    </g>
    <g transform="translate(10 142)">
      <circle cx="7.5" cy="7.5" r="7.5" fill="#0D87FF" opacity=".499"/>
      <polygon fill="#FFF" points="7.5 9.75 4.855 11.141 5.36 8.195 3.22 6.109 6.177 5.68 7.5 3 8.823 5.68 11.78 6.109 9.64 8.195 10.145 11.141"/>
    </g>
    <circle cx="5" cy="5" r="5" fill="#58A8F7" opacity=".197" transform="translate(35 145)"/>
    <g transform="translate(54 142)">
      <mask id="33tc4i4ewcw-gui-b" fill="#fff">
        <use xlink:href="#33tc4i4ewcw-gui-a"/>
      </mask>
      <use fill="#58A8F7" opacity=".197" xlink:href="#33tc4i4ewcw-gui-a"/>
      <path fill="#0D87FF" d="M7.5,21 C3.91014913,21 1,18.0898509 1,14.5 C1,10.9101491 3.91014913,8 7.5,8 C11.0898509,8 14,10.9101491 14,14.5 C14,18.0898509 11.0898509,21 7.5,21 Z M7.5,7 C6.11928813,7 5,5.88071187 5,4.5 C5,3.11928813 6.11928813,2 7.5,2 C8.88071187,2 10,3.11928813 10,4.5 C10,5.88071187 8.88071187,7 7.5,7 Z" mask="url(#33tc4i4ewcw-gui-b)" opacity=".499"/>
    </g>
    <g transform="translate(79 142)">
      <circle cx="7.5" cy="7.5" r="7.5" fill="#FFF"/>
      <polygon fill="#0D87FF" points="5 3 0 6 0 0" transform="translate(5.816 4.286)"/>
    </g>
    <g transform="translate(104 140)">
      <path fill="#58A8F7" d="M0,1.99508929 C0,0.893231902 0.897026226,0 2.00494659,0 L21.9950534,0 C23.1023548,0 24,0.892622799 24,1.99508929 L24,16.0049107 C24,17.1067681 23.1029738,18 21.9950534,18 L2.00494659,18 C0.897645164,18 0,17.1073772 0,16.0049107 L0,1.99508929 Z" opacity=".197"/>
      <mask id="33tc4i4ewcw-gui-d" fill="#fff">
        <use xlink:href="#33tc4i4ewcw-gui-c"/>
      </mask>
      <path fill="#58A8F7" d="M20.5714286,9.81818182 C25.2050919,9.81818182 28.0565771,13.3115424 32.5714286,18 C28.8882603,18 13.1203921,18 8.57142857,18 C12.4922207,14.1389173 15.9377652,9.81818182 20.5714286,9.81818182 Z" mask="url(#33tc4i4ewcw-gui-d)" opacity=".197"/>
      <path fill="#0D87FF" d="M3.42857143,8.18181818 C8.31958315,8.18181818 11.9126984,12.8633949 16.2857143,18 C10.5479809,18 -3.34693878,18 -8.57142857,18 C-4.34737299,12.8633949 -1.4624403,8.18181818 3.42857143,8.18181818 Z" mask="url(#33tc4i4ewcw-gui-d)" opacity=".198"/>
      <circle cx="12.857" cy="5.727" r="3" fill="#58A8F7" mask="url(#33tc4i4ewcw-gui-d)" opacity=".499"/>
    </g>
  </g>
</svg></g></g></g><rect x="-1" y="-1" rx="3" ry="3" width="182" height="230" fill="none" stroke="#A2CEF9" stroke-width="2"/><g transform="translate(0,206)"><g><text x="90" y="4" text-anchor="middle" font-family="Roboto,sans-serif" font-size="14px" fill="#52565f">Gerenciar Cupons</text></g></g></g><g transform="translate(410, 586)"><rect x="0" y="0" rx="2" ry="2" width="180" height="228" fill="#ffffff"/><g><g><g transform="translate( 0, 0 )"><svg xmlns="http://www.w3.org/2000/svg" xmlns:xlink="http://www.w3.org/1999/xlink" width="180" height="185" viewBox="0 0 180 185">
  <defs>
    <rect id="hvl4m3n98n-news_grid-a" width="46" height="36" rx="2"/>
    <rect id="hvl4m3n98n-news_grid-c" width="46" height="36" rx="2"/>
    <rect id="hvl4m3n98n-news_grid-e" width="46" height="36" rx="2"/>
    <rect id="hvl4m3n98n-news_grid-g" width="46" height="36" rx="2"/>
    <rect id="hvl4m3n98n-news_grid-i" width="46" height="36" rx="2"/>
    <rect id="hvl4m3n98n-news_grid-k" width="46" height="36" rx="2"/>
  </defs>
  <g fill="none" fill-rule="evenodd">
    <path fill="#58A8F7" d="M0,2.99971296 C0,1.34301724 1.34537458,0 2.99263929,0 L177.007361,0 C178.66015,0 180,1.34382565 180,2.99971296 L180,185 L0,185 L0,2.99971296 Z" opacity=".097"/>
    <path fill="#58A8F7" d="M0,3.00947762 C0,1.34738902 1.34537458,0 2.99263929,0 L177.007361,0 C178.66015,0 180,1.33663106 180,3.00947762 L180,16 L0,16 L0,3.00947762 Z" opacity=".197"/>
    <path fill="#0D87FF" d="M2.5,5 C1.11928813,5 0,3.88071187 0,2.5 C0,1.11928813 1.11928813,0 2.5,0 C3.88071187,0 5,1.11928813 5,2.5 C5,3.88071187 3.88071187,5 2.5,5 Z M10.5,5 C9.11928813,5 8,3.88071187 8,2.5 C8,1.11928813 9.11928813,0 10.5,0 C11.8807119,0 13,1.11928813 13,2.5 C13,3.88071187 11.8807119,5 10.5,5 Z M18.5,5 C17.1192881,5 16,3.88071187 16,2.5 C16,1.11928813 17.1192881,0 18.5,0 C19.8807119,0 21,1.11928813 21,2.5 C21,3.88071187 19.8807119,5 18.5,5 Z" opacity=".499" transform="translate(5 6)"/>
    <g transform="translate(10 26)">
      <rect width="46" height="36" fill="#58A8F7" opacity=".197" rx="2"/>
      <mask id="hvl4m3n98n-news_grid-b" fill="#fff">
        <use xlink:href="#hvl4m3n98n-news_grid-a"/>
      </mask>
      <path fill="#58A8F7" d="M36.8,17.1428571 C44.6661952,17.1428571 48.8497878,25.1942215 56.5142857,36 L15.7714286,36 C22.4274399,27.1011236 28.9338048,17.1428571 36.8,17.1428571 Z" mask="url(#hvl4m3n98n-news_grid-b)" opacity=".197"/>
      <path fill="#0D87FF" d="M10.5142857,13.7142857 C18.9189553,13.7142857 24.6854497,24.3407217 32.2,36 L-10.5142857,36 C-3.25570745,24.3407217 2.10961614,13.7142857 10.5142857,13.7142857 Z" mask="url(#hvl4m3n98n-news_grid-b)" opacity=".198"/>
      <circle cx="24.971" cy="9.429" r="5" fill="#58A8F7" mask="url(#hvl4m3n98n-news_grid-b)" opacity=".499"/>
    </g>
    <g transform="translate(10 106)">
      <rect width="46" height="36" fill="#58A8F7" opacity=".197" rx="2"/>
      <mask id="hvl4m3n98n-news_grid-d" fill="#fff">
        <use xlink:href="#hvl4m3n98n-news_grid-c"/>
      </mask>
      <path fill="#58A8F7" d="M36.8,17.1428571 C44.6661952,17.1428571 48.8497878,25.1942215 56.5142857,36 L15.7714286,36 C22.4274399,27.1011236 28.9338048,17.1428571 36.8,17.1428571 Z" mask="url(#hvl4m3n98n-news_grid-d)" opacity=".197"/>
      <path fill="#0D87FF" d="M10.5142857,13.7142857 C18.9189553,13.7142857 24.6854497,24.3407217 32.2,36 L-10.5142857,36 C-3.25570745,24.3407217 2.10961614,13.7142857 10.5142857,13.7142857 Z" mask="url(#hvl4m3n98n-news_grid-d)" opacity=".198"/>
      <circle cx="24.971" cy="9.429" r="5" fill="#58A8F7" mask="url(#hvl4m3n98n-news_grid-d)" opacity=".499"/>
    </g>
    <g transform="translate(67 26)">
      <rect width="46" height="36" fill="#58A8F7" opacity=".197" rx="2"/>
      <mask id="hvl4m3n98n-news_grid-f" fill="#fff">
        <use xlink:href="#hvl4m3n98n-news_grid-e"/>
      </mask>
      <path fill="#58A8F7" d="M36.8,17.1428571 C44.6661952,17.1428571 48.8497878,25.1942215 56.5142857,36 L15.7714286,36 C22.4274399,27.1011236 28.9338048,17.1428571 36.8,17.1428571 Z" mask="url(#hvl4m3n98n-news_grid-f)" opacity=".197"/>
      <path fill="#0D87FF" d="M10.5142857,13.7142857 C18.9189553,13.7142857 24.6854497,24.3407217 32.2,36 L-10.5142857,36 C-3.25570745,24.3407217 2.10961614,13.7142857 10.5142857,13.7142857 Z" mask="url(#hvl4m3n98n-news_grid-f)" opacity=".198"/>
      <circle cx="24.971" cy="9.429" r="5" fill="#58A8F7" mask="url(#hvl4m3n98n-news_grid-f)" opacity=".499"/>
    </g>
    <g transform="translate(67 106)">
      <rect width="46" height="36" fill="#58A8F7" opacity=".197" rx="2"/>
      <mask id="hvl4m3n98n-news_grid-h" fill="#fff">
        <use xlink:href="#hvl4m3n98n-news_grid-g"/>
      </mask>
      <path fill="#58A8F7" d="M36.8,17.1428571 C44.6661952,17.1428571 48.8497878,25.1942215 56.5142857,36 L15.7714286,36 C22.4274399,27.1011236 28.9338048,17.1428571 36.8,17.1428571 Z" mask="url(#hvl4m3n98n-news_grid-h)" opacity=".197"/>
      <path fill="#0D87FF" d="M10.5142857,13.7142857 C18.9189553,13.7142857 24.6854497,24.3407217 32.2,36 L-10.5142857,36 C-3.25570745,24.3407217 2.10961614,13.7142857 10.5142857,13.7142857 Z" mask="url(#hvl4m3n98n-news_grid-h)" opacity=".198"/>
      <circle cx="24.971" cy="9.429" r="5" fill="#58A8F7" mask="url(#hvl4m3n98n-news_grid-h)" opacity=".499"/>
    </g>
    <g fill="#58A8F7" transform="translate(10 67)">
      <polygon points="0 0 26 0 26 5 0 5" opacity=".499" transform="translate(10)"/>
      <polygon points="0 0 46 0 46 3 0 3" opacity=".197" transform="translate(0 17)"/>
      <polygon points="0 0 46 0 46 3 0 3" opacity=".197" transform="translate(0 10)"/>
      <polygon points="0 0 26 0 26 3 0 3" opacity=".197" transform="translate(10 24)"/>
    </g>
    <g fill="#58A8F7" transform="translate(10 147)">
      <polygon points="0 0 26 0 26 5 0 5" opacity=".499" transform="translate(10)"/>
      <polygon points="0 0 46 0 46 3 0 3" opacity=".197" transform="translate(0 17)"/>
      <polygon points="0 0 46 0 46 3 0 3" opacity=".197" transform="translate(0 10)"/>
      <polygon points="0 0 26 0 26 3 0 3" opacity=".197" transform="translate(10 24)"/>
    </g>
    <g fill="#58A8F7" transform="translate(67 67)">
      <polygon points="0 0 26 0 26 5 0 5" opacity=".499" transform="translate(10)"/>
      <polygon points="0 0 46 0 46 3 0 3" opacity=".197" transform="translate(0 17)"/>
      <polygon points="0 0 46 0 46 3 0 3" opacity=".197" transform="translate(0 10)"/>
      <polygon points="0 0 26 0 26 3 0 3" opacity=".197" transform="translate(10 24)"/>
    </g>
    <g fill="#58A8F7" transform="translate(67 147)">
      <polygon points="0 0 26 0 26 5 0 5" opacity=".499" transform="translate(10)"/>
      <polygon points="0 0 46 0 46 3 0 3" opacity=".197" transform="translate(0 17)"/>
      <polygon points="0 0 46 0 46 3 0 3" opacity=".197" transform="translate(0 10)"/>
      <polygon points="0 0 26 0 26 3 0 3" opacity=".197" transform="translate(10 24)"/>
    </g>
    <g fill="#58A8F7" transform="translate(124 67)">
      <polygon points="0 0 26 0 26 5 0 5" opacity=".499" transform="translate(10)"/>
      <polygon points="0 0 46 0 46 3 0 3" opacity=".197" transform="translate(0 17)"/>
      <polygon points="0 0 46 0 46 3 0 3" opacity=".197" transform="translate(0 10)"/>
      <polygon points="0 0 26 0 26 3 0 3" opacity=".197" transform="translate(10 24)"/>
    </g>
    <g fill="#58A8F7" transform="translate(124 147)">
      <polygon points="0 0 26 0 26 5 0 5" opacity=".499" transform="translate(10)"/>
      <polygon points="0 0 46 0 46 3 0 3" opacity=".197" transform="translate(0 17)"/>
      <polygon points="0 0 46 0 46 3 0 3" opacity=".197" transform="translate(0 10)"/>
      <polygon points="0 0 26 0 26 3 0 3" opacity=".197" transform="translate(10 24)"/>
    </g>
    <g transform="translate(124 26)">
      <rect width="46" height="36" fill="#58A8F7" opacity=".197" rx="2"/>
      <mask id="hvl4m3n98n-news_grid-j" fill="#fff">
        <use xlink:href="#hvl4m3n98n-news_grid-i"/>
      </mask>
      <path fill="#58A8F7" d="M36.8,17.1428571 C44.6661952,17.1428571 48.8497878,25.1942215 56.5142857,36 L15.7714286,36 C22.4274399,27.1011236 28.9338048,17.1428571 36.8,17.1428571 Z" mask="url(#hvl4m3n98n-news_grid-j)" opacity=".197"/>
      <path fill="#0D87FF" d="M10.5142857,13.7142857 C18.9189553,13.7142857 24.6854497,24.3407217 32.2,36 L-10.5142857,36 C-3.25570745,24.3407217 2.10961614,13.7142857 10.5142857,13.7142857 Z" mask="url(#hvl4m3n98n-news_grid-j)" opacity=".198"/>
      <circle cx="24.971" cy="9.429" r="5" fill="#58A8F7" mask="url(#hvl4m3n98n-news_grid-j)" opacity=".499"/>
    </g>
    <g transform="translate(124 106)">
      <rect width="46" height="36" fill="#58A8F7" opacity=".197" rx="2"/>
      <mask id="hvl4m3n98n-news_grid-l" fill="#fff">
        <use xlink:href="#hvl4m3n98n-news_grid-k"/>
      </mask>
      <path fill="#58A8F7" d="M36.8,17.1428571 C44.6661952,17.1428571 48.8497878,25.1942215 56.5142857,36 L15.7714286,36 C22.4274399,27.1011236 28.9338048,17.1428571 36.8,17.1428571 Z" mask="url(#hvl4m3n98n-news_grid-l)" opacity=".197"/>
      <path fill="#0D87FF" d="M10.5142857,13.7142857 C18.9189553,13.7142857 24.6854497,24.3407217 32.2,36 L-10.5142857,36 C-3.25570745,24.3407217 2.10961614,13.7142857 10.5142857,13.7142857 Z" mask="url(#hvl4m3n98n-news_grid-l)" opacity=".198"/>
      <circle cx="24.971" cy="9.429" r="5" fill="#58A8F7" mask="url(#hvl4m3n98n-news_grid-l)" opacity=".499"/>
    </g>
  </g>
</svg></g></g></g><rect x="-1" y="-1" rx="3" ry="3" width="182" height="230" fill="none" stroke="#A2CEF9" stroke-width="2"/><g transform="translate(0,206)"><g><text x="90" y="4" text-anchor="middle" font-family="Roboto,sans-serif" font-size="14px" fill="#52565f">Gerenciar Produtos </text></g></g></g><g transform="translate(210, 306)"><rect x="0" y="0" rx="2" ry="2" width="180" height="228" fill="#ffffff"/><g><g><g transform="translate( 0, 0 )"><svg xmlns="http://www.w3.org/2000/svg" xmlns:xlink="http://www.w3.org/1999/xlink" width="180" height="185" viewBox="0 0 180 185">
  <defs>
    <rect id="zwjocxt689-news_grid-a" width="46" height="36" rx="2"/>
    <rect id="zwjocxt689-news_grid-c" width="46" height="36" rx="2"/>
    <rect id="zwjocxt689-news_grid-e" width="46" height="36" rx="2"/>
    <rect id="zwjocxt689-news_grid-g" width="46" height="36" rx="2"/>
    <rect id="zwjocxt689-news_grid-i" width="46" height="36" rx="2"/>
    <rect id="zwjocxt689-news_grid-k" width="46" height="36" rx="2"/>
  </defs>
  <g fill="none" fill-rule="evenodd">
    <path fill="#58A8F7" d="M0,2.99971296 C0,1.34301724 1.34537458,0 2.99263929,0 L177.007361,0 C178.66015,0 180,1.34382565 180,2.99971296 L180,185 L0,185 L0,2.99971296 Z" opacity=".097"/>
    <path fill="#58A8F7" d="M0,3.00947762 C0,1.34738902 1.34537458,0 2.99263929,0 L177.007361,0 C178.66015,0 180,1.33663106 180,3.00947762 L180,16 L0,16 L0,3.00947762 Z" opacity=".197"/>
    <path fill="#0D87FF" d="M2.5,5 C1.11928813,5 0,3.88071187 0,2.5 C0,1.11928813 1.11928813,0 2.5,0 C3.88071187,0 5,1.11928813 5,2.5 C5,3.88071187 3.88071187,5 2.5,5 Z M10.5,5 C9.11928813,5 8,3.88071187 8,2.5 C8,1.11928813 9.11928813,0 10.5,0 C11.8807119,0 13,1.11928813 13,2.5 C13,3.88071187 11.8807119,5 10.5,5 Z M18.5,5 C17.1192881,5 16,3.88071187 16,2.5 C16,1.11928813 17.1192881,0 18.5,0 C19.8807119,0 21,1.11928813 21,2.5 C21,3.88071187 19.8807119,5 18.5,5 Z" opacity=".499" transform="translate(5 6)"/>
    <g transform="translate(10 26)">
      <rect width="46" height="36" fill="#58A8F7" opacity=".197" rx="2"/>
      <mask id="zwjocxt689-news_grid-b" fill="#fff">
        <use xlink:href="#zwjocxt689-news_grid-a"/>
      </mask>
      <path fill="#58A8F7" d="M36.8,17.1428571 C44.6661952,17.1428571 48.8497878,25.1942215 56.5142857,36 L15.7714286,36 C22.4274399,27.1011236 28.9338048,17.1428571 36.8,17.1428571 Z" mask="url(#zwjocxt689-news_grid-b)" opacity=".197"/>
      <path fill="#0D87FF" d="M10.5142857,13.7142857 C18.9189553,13.7142857 24.6854497,24.3407217 32.2,36 L-10.5142857,36 C-3.25570745,24.3407217 2.10961614,13.7142857 10.5142857,13.7142857 Z" mask="url(#zwjocxt689-news_grid-b)" opacity=".198"/>
      <circle cx="24.971" cy="9.429" r="5" fill="#58A8F7" mask="url(#zwjocxt689-news_grid-b)" opacity=".499"/>
    </g>
    <g transform="translate(10 106)">
      <rect width="46" height="36" fill="#58A8F7" opacity=".197" rx="2"/>
      <mask id="zwjocxt689-news_grid-d" fill="#fff">
        <use xlink:href="#zwjocxt689-news_grid-c"/>
      </mask>
      <path fill="#58A8F7" d="M36.8,17.1428571 C44.6661952,17.1428571 48.8497878,25.1942215 56.5142857,36 L15.7714286,36 C22.4274399,27.1011236 28.9338048,17.1428571 36.8,17.1428571 Z" mask="url(#zwjocxt689-news_grid-d)" opacity=".197"/>
      <path fill="#0D87FF" d="M10.5142857,13.7142857 C18.9189553,13.7142857 24.6854497,24.3407217 32.2,36 L-10.5142857,36 C-3.25570745,24.3407217 2.10961614,13.7142857 10.5142857,13.7142857 Z" mask="url(#zwjocxt689-news_grid-d)" opacity=".198"/>
      <circle cx="24.971" cy="9.429" r="5" fill="#58A8F7" mask="url(#zwjocxt689-news_grid-d)" opacity=".499"/>
    </g>
    <g transform="translate(67 26)">
      <rect width="46" height="36" fill="#58A8F7" opacity=".197" rx="2"/>
      <mask id="zwjocxt689-news_grid-f" fill="#fff">
        <use xlink:href="#zwjocxt689-news_grid-e"/>
      </mask>
      <path fill="#58A8F7" d="M36.8,17.1428571 C44.6661952,17.1428571 48.8497878,25.1942215 56.5142857,36 L15.7714286,36 C22.4274399,27.1011236 28.9338048,17.1428571 36.8,17.1428571 Z" mask="url(#zwjocxt689-news_grid-f)" opacity=".197"/>
      <path fill="#0D87FF" d="M10.5142857,13.7142857 C18.9189553,13.7142857 24.6854497,24.3407217 32.2,36 L-10.5142857,36 C-3.25570745,24.3407217 2.10961614,13.7142857 10.5142857,13.7142857 Z" mask="url(#zwjocxt689-news_grid-f)" opacity=".198"/>
      <circle cx="24.971" cy="9.429" r="5" fill="#58A8F7" mask="url(#zwjocxt689-news_grid-f)" opacity=".499"/>
    </g>
    <g transform="translate(67 106)">
      <rect width="46" height="36" fill="#58A8F7" opacity=".197" rx="2"/>
      <mask id="zwjocxt689-news_grid-h" fill="#fff">
        <use xlink:href="#zwjocxt689-news_grid-g"/>
      </mask>
      <path fill="#58A8F7" d="M36.8,17.1428571 C44.6661952,17.1428571 48.8497878,25.1942215 56.5142857,36 L15.7714286,36 C22.4274399,27.1011236 28.9338048,17.1428571 36.8,17.1428571 Z" mask="url(#zwjocxt689-news_grid-h)" opacity=".197"/>
      <path fill="#0D87FF" d="M10.5142857,13.7142857 C18.9189553,13.7142857 24.6854497,24.3407217 32.2,36 L-10.5142857,36 C-3.25570745,24.3407217 2.10961614,13.7142857 10.5142857,13.7142857 Z" mask="url(#zwjocxt689-news_grid-h)" opacity=".198"/>
      <circle cx="24.971" cy="9.429" r="5" fill="#58A8F7" mask="url(#zwjocxt689-news_grid-h)" opacity=".499"/>
    </g>
    <g fill="#58A8F7" transform="translate(10 67)">
      <polygon points="0 0 26 0 26 5 0 5" opacity=".499" transform="translate(10)"/>
      <polygon points="0 0 46 0 46 3 0 3" opacity=".197" transform="translate(0 17)"/>
      <polygon points="0 0 46 0 46 3 0 3" opacity=".197" transform="translate(0 10)"/>
      <polygon points="0 0 26 0 26 3 0 3" opacity=".197" transform="translate(10 24)"/>
    </g>
    <g fill="#58A8F7" transform="translate(10 147)">
      <polygon points="0 0 26 0 26 5 0 5" opacity=".499" transform="translate(10)"/>
      <polygon points="0 0 46 0 46 3 0 3" opacity=".197" transform="translate(0 17)"/>
      <polygon points="0 0 46 0 46 3 0 3" opacity=".197" transform="translate(0 10)"/>
      <polygon points="0 0 26 0 26 3 0 3" opacity=".197" transform="translate(10 24)"/>
    </g>
    <g fill="#58A8F7" transform="translate(67 67)">
      <polygon points="0 0 26 0 26 5 0 5" opacity=".499" transform="translate(10)"/>
      <polygon points="0 0 46 0 46 3 0 3" opacity=".197" transform="translate(0 17)"/>
      <polygon points="0 0 46 0 46 3 0 3" opacity=".197" transform="translate(0 10)"/>
      <polygon points="0 0 26 0 26 3 0 3" opacity=".197" transform="translate(10 24)"/>
    </g>
    <g fill="#58A8F7" transform="translate(67 147)">
      <polygon points="0 0 26 0 26 5 0 5" opacity=".499" transform="translate(10)"/>
      <polygon points="0 0 46 0 46 3 0 3" opacity=".197" transform="translate(0 17)"/>
      <polygon points="0 0 46 0 46 3 0 3" opacity=".197" transform="translate(0 10)"/>
      <polygon points="0 0 26 0 26 3 0 3" opacity=".197" transform="translate(10 24)"/>
    </g>
    <g fill="#58A8F7" transform="translate(124 67)">
      <polygon points="0 0 26 0 26 5 0 5" opacity=".499" transform="translate(10)"/>
      <polygon points="0 0 46 0 46 3 0 3" opacity=".197" transform="translate(0 17)"/>
      <polygon points="0 0 46 0 46 3 0 3" opacity=".197" transform="translate(0 10)"/>
      <polygon points="0 0 26 0 26 3 0 3" opacity=".197" transform="translate(10 24)"/>
    </g>
    <g fill="#58A8F7" transform="translate(124 147)">
      <polygon points="0 0 26 0 26 5 0 5" opacity=".499" transform="translate(10)"/>
      <polygon points="0 0 46 0 46 3 0 3" opacity=".197" transform="translate(0 17)"/>
      <polygon points="0 0 46 0 46 3 0 3" opacity=".197" transform="translate(0 10)"/>
      <polygon points="0 0 26 0 26 3 0 3" opacity=".197" transform="translate(10 24)"/>
    </g>
    <g transform="translate(124 26)">
      <rect width="46" height="36" fill="#58A8F7" opacity=".197" rx="2"/>
      <mask id="zwjocxt689-news_grid-j" fill="#fff">
        <use xlink:href="#zwjocxt689-news_grid-i"/>
      </mask>
      <path fill="#58A8F7" d="M36.8,17.1428571 C44.6661952,17.1428571 48.8497878,25.1942215 56.5142857,36 L15.7714286,36 C22.4274399,27.1011236 28.9338048,17.1428571 36.8,17.1428571 Z" mask="url(#zwjocxt689-news_grid-j)" opacity=".197"/>
      <path fill="#0D87FF" d="M10.5142857,13.7142857 C18.9189553,13.7142857 24.6854497,24.3407217 32.2,36 L-10.5142857,36 C-3.25570745,24.3407217 2.10961614,13.7142857 10.5142857,13.7142857 Z" mask="url(#zwjocxt689-news_grid-j)" opacity=".198"/>
      <circle cx="24.971" cy="9.429" r="5" fill="#58A8F7" mask="url(#zwjocxt689-news_grid-j)" opacity=".499"/>
    </g>
    <g transform="translate(124 106)">
      <rect width="46" height="36" fill="#58A8F7" opacity=".197" rx="2"/>
      <mask id="zwjocxt689-news_grid-l" fill="#fff">
        <use xlink:href="#zwjocxt689-news_grid-k"/>
      </mask>
      <path fill="#58A8F7" d="M36.8,17.1428571 C44.6661952,17.1428571 48.8497878,25.1942215 56.5142857,36 L15.7714286,36 C22.4274399,27.1011236 28.9338048,17.1428571 36.8,17.1428571 Z" mask="url(#zwjocxt689-news_grid-l)" opacity=".197"/>
      <path fill="#0D87FF" d="M10.5142857,13.7142857 C18.9189553,13.7142857 24.6854497,24.3407217 32.2,36 L-10.5142857,36 C-3.25570745,24.3407217 2.10961614,13.7142857 10.5142857,13.7142857 Z" mask="url(#zwjocxt689-news_grid-l)" opacity=".198"/>
      <circle cx="24.971" cy="9.429" r="5" fill="#58A8F7" mask="url(#zwjocxt689-news_grid-l)" opacity=".499"/>
    </g>
  </g>
</svg></g></g></g><rect x="-1" y="-1" rx="3" ry="3" width="182" height="230" fill="none" stroke="#A2CEF9" stroke-width="2"/><g transform="translate(0,206)"><g><text x="90" y="4" text-anchor="middle" font-family="Roboto,sans-serif" font-size="14px" fill="#52565f">Admin - Homepage</text></g></g></g><g transform="translate(210, 26)"><rect x="0" y="0" rx="2" ry="2" width="180" height="228" fill="#ffffff"/><g><g><g transform="translate( 0, 0 )"><svg xmlns="http://www.w3.org/2000/svg" width="180" height="185" viewBox="0 0 180 185">
  <g fill="none" fill-rule="evenodd">
    <path fill="#58A8F7" d="M0,2.99971296 C0,1.34301724 1.34537458,0 2.99263929,0 L177.007361,0 C178.66015,0 180,1.34382565 180,2.99971296 L180,185 L0,185 L0,2.99971296 Z" opacity=".097"/>
    <path fill="#58A8F7" d="M0,3.00947762 C0,1.34738902 1.34537458,0 2.99263929,0 L177.007361,0 C178.66015,0 180,1.33663106 180,3.00947762 L180,16 L0,16 L0,3.00947762 Z" opacity=".197"/>
    <path fill="#0D87FF" d="M2.5,5 C1.11928813,5 0,3.88071187 0,2.5 C0,1.11928813 1.11928813,0 2.5,0 C3.88071187,0 5,1.11928813 5,2.5 C5,3.88071187 3.88071187,5 2.5,5 Z M10.5,5 C9.11928813,5 8,3.88071187 8,2.5 C8,1.11928813 9.11928813,0 10.5,0 C11.8807119,0 13,1.11928813 13,2.5 C13,3.88071187 11.8807119,5 10.5,5 Z M18.5,5 C17.1192881,5 16,3.88071187 16,2.5 C16,1.11928813 17.1192881,0 18.5,0 C19.8807119,0 21,1.11928813 21,2.5 C21,3.88071187 19.8807119,5 18.5,5 Z" opacity=".499" transform="translate(5 6)"/>
    <path fill="#58A8F7" d="M3.8458278,-1.55376046e-16 L107.154172,1.55376046e-16 C108.49145,-9.02779573e-17 108.97638,0.139238417 109.465269,0.400699056 C109.954157,0.662159695 110.33784,1.04584256 110.599301,1.53473144 C110.860762,2.02362033 111,2.50854969 111,3.8458278 L111,81.1541722 C111,82.4914503 110.860762,82.9763797 110.599301,83.4652686 C110.33784,83.9541574 109.954157,84.3378403 109.465269,84.5993009 C108.97638,84.8607616 108.49145,85 107.154172,85 L3.8458278,85 C2.50854969,85 2.02362033,84.8607616 1.53473144,84.5993009 C1.04584256,84.3378403 0.662159695,83.9541574 0.400699056,83.4652686 C0.139238417,82.9763797 6.01853049e-17,82.4914503 -1.03584031e-16,81.1541722 L1.03584031e-16,3.8458278 C-6.01853049e-17,2.50854969 0.139238417,2.02362033 0.400699056,1.53473144 C0.662159695,1.04584256 1.04584256,0.662159695 1.53473144,0.400699056 C2.02362033,0.139238417 2.50854969,9.02779573e-17 3.8458278,-1.55376046e-16 Z" opacity=".197" transform="translate(35 54)"/>
    <g transform="translate(45 64)">
      <g transform="translate(0 6)">
        <rect width="91" height="11" fill="#58A8F7" opacity=".499" rx="2"/>
        <rect width="89" height="9" x="1" y="1" fill="#FFF" rx="1"/>
        <polygon fill="#58A8F7" points="0 0 53 0 53 3 0 3" opacity=".197" transform="translate(4 4)"/>
        <polygon fill="#0D87FF" points="2.5 3 0 0 5 0" transform="translate(81 4)"/>
      </g>
      <polygon fill="#58A8F7" points="0 0 32 0 32 3 0 3" opacity=".197"/>
    </g>
    <g transform="translate(45 91)">
      <g transform="translate(0 6)">
        <rect width="91" height="11" fill="#58A8F7" opacity=".499" rx="2"/>
        <rect width="89" height="9" x="1" y="1" fill="#FFF" rx="1"/>
      </g>
      <polygon fill="#58A8F7" points="0 0 20 0 20 3 0 3" opacity=".197"/>
    </g>
    <path fill="#0D87FF" d="M0,1.99201702 C0,0.891856397 0.900658965,0 2.00671997,0 L88.99328,0 C90.1015609,0 91,0.900176167 91,1.99201702 L91,9.00798298 C91,10.1081436 90.099341,11 88.99328,11 L2.00671997,11 C0.898439133,11 0,10.0998238 0,9.00798298 L0,1.99201702 Z" opacity=".499" transform="translate(45 118)"/>
    <polygon fill="#58A8F7" points="0 0 50 0 50 8 0 8" opacity=".499" transform="translate(65 36)"/>
  </g>
</svg></g></g></g><rect x="-1" y="-1" rx="3" ry="3" width="182" height="230" fill="none" stroke="#A2CEF9" stroke-width="2"/><g transform="translate(0,206)"><g><text x="90" y="4" text-anchor="middle" font-family="Roboto,sans-serif" font-size="14px" fill="#52565f">Admin - Login</text></g></g></g></g><g><g><g><path d="M 460,814L 460,840L 460,866" stroke="#4d9ef6" stroke-width="2" fill="none"/><path d="M 460,840L 650,840Q660,840 660,850L 660,866" stroke="#4d9ef6" stroke-width="2" fill="none"/></g><g><g transform="translate( 450,804 )"><circle cx="10" cy="10" r="9" stroke-width="2" stroke="#A2CEF9" fill="#ffffff"/><path d="M10 7L13 12L7 12Z" fill="#58A8F7"/></g><g transform="translate( 454,860 )"><circle cx="6" cy="6" r="5" stroke-width="2" stroke="#A2CEF9" fill="#ffffff"/><path d="M6 8L4 5L8 5Z" fill="#58A8F7"/></g><g transform="translate( 654,860 )"><circle cx="6" cy="6" r="5" stroke-width="2" stroke="#A2CEF9" fill="#ffffff"/><path d="M6 8L4 5L8 5Z" fill="#58A8F7"/></g></g></g><g><g><path d="M 270,560L 70,560Q60,560 60,570L 60,586" stroke="#4d9ef6" stroke-width="2" fill="none"/><path d="M 260,534L 260,560L 260,586" stroke="#4d9ef6" stroke-width="2" fill="none"/><path d="M 250,560L 450,560Q460,560 460,570L 460,586" stroke="#4d9ef6" stroke-width="2" fill="none"/></g><g><g transform="translate( 250,524 )"><circle cx="10" cy="10" r="9" stroke-width="2" stroke="#A2CEF9" fill="#ffffff"/><path d="M10 7L13 12L7 12Z" fill="#58A8F7"/></g><g transform="translate( 54,580 )"><circle cx="6" cy="6" r="5" stroke-width="2" stroke="#A2CEF9" fill="#ffffff"/><path d="M6 8L4 5L8 5Z" fill="#58A8F7"/></g><g transform="translate( 254,580 )"><circle cx="6" cy="6" r="5" stroke-width="2" stroke="#A2CEF9" fill="#ffffff"/><path d="M6 8L4 5L8 5Z" fill="#58A8F7"/></g><g transform="translate( 454,580 )"><circle cx="6" cy="6" r="5" stroke-width="2" stroke="#A2CEF9" fill="#ffffff"/><path d="M6 8L4 5L8 5Z" fill="#58A8F7"/></g></g></g><g><g><path d="M 260,254L 260,280L 260,306" stroke="#4d9ef6" stroke-width="2" fill="none"/></g><g><g transform="translate( 250,244 )"><circle cx="10" cy="10" r="9" stroke-width="2" stroke="#A2CEF9" fill="#ffffff"/><path d="M10 7L13 12L7 12Z" fill="#58A8F7"/></g><g transform="translate( 254,300 )"><circle cx="6" cy="6" r="5" stroke-width="2" stroke="#A2CEF9" fill="#ffffff"/><path d="M6 8L4 5L8 5Z" fill="#58A8F7"/></g></g></g></g></g></g></svg>